<svg width="716" height="97" viewBox="0 0 716 97" fill="none" xmlns="http://www.w3.org/2000/svg">
<g clip-path="url(#clip0_801_834)">
<path fill-rule="evenodd" clip-rule="evenodd" d="M156.427 18.8782C157.551 17.8852 158.456 16.6682 159.085 15.305C159.713 13.9417 160.05 12.4621 160.076 10.9608C160.081 9.51963 159.801 8.0917 159.253 6.75929C158.705 5.42688 157.899 4.21633 156.882 3.19744C155.865 2.17855 154.657 1.37146 153.327 0.822698C151.997 0.273939 150.572 -0.0056376 149.133 8.61393e-05C146.701 0.0658179 144.355 0.919823 142.448 2.43407C140.309 4.51905 139.073 7.36231 139.006 10.3515C139.024 12.3684 139.603 14.3404 140.676 16.0464C141.75 17.7524 143.277 19.1249 145.086 20.0102C146.895 20.8955 148.914 21.2585 150.917 21.0586C152.92 20.8586 154.828 20.1036 156.427 18.8782ZM121.174 20.706C121.174 20.9101 120.97 20.9101 120.77 21.1111V21.3152C116.425 22.1523 112.373 24.1118 109.016 26.9997C106.989 28.9117 105.156 31.0199 103.543 33.2934C99.4934 38.9779 109.016 44.4582 112.868 38.7768C117.93 31.6635 124.211 29.6378 131.104 31.8738C127.659 38.1676 124.415 44.2448 120.159 52.7839C115.698 61.5147 106.179 68.4177 96.8543 63.1384C96.2291 62.7209 95.5271 62.4326 94.7894 62.2903C94.0516 62.1481 93.293 62.1547 92.5578 62.3098C91.8226 62.465 91.1258 62.7655 90.5079 63.1938C89.8901 63.6221 89.3638 64.1696 88.9597 64.8042C88.5557 65.4388 88.282 66.1478 88.1548 66.8897C88.0276 67.6316 88.0494 68.3915 88.2189 69.1249C88.3883 69.8582 88.7021 70.5503 89.1419 71.1607C89.5816 71.771 90.1384 72.2874 90.7797 72.6794C96.4635 75.9238 103.115 77.0316 109.541 75.8038C115.967 74.576 121.745 71.0931 125.838 65.9806C126.042 65.9806 126.455 66.1816 126.647 66.1816C132.689 68.6991 138.351 72.0489 143.469 76.134C145.898 78.1598 150.152 88.505 152.584 93.7936C152.963 94.5375 153.503 95.1874 154.164 95.696C154.825 96.2047 155.591 96.5593 156.406 96.734C157.221 96.9088 158.065 96.8994 158.876 96.7063C159.687 96.5133 160.445 96.1416 161.094 95.6183C161.864 94.8699 162.362 93.885 162.51 92.8202C162.657 91.7554 162.444 90.6719 161.906 89.7421C159.069 83.8659 154.408 71.8753 150.559 69.0207C147.498 66.5023 144.32 64.1286 141.037 61.9074L141.441 61.5023C140.118 60.6433 138.765 59.8305 137.385 59.0652C140.833 52.5705 144.278 46.2767 147.923 39.983C152.102 41.3067 156.55 41.5349 160.843 40.6459C165.135 39.7568 169.128 37.7802 172.441 34.9047C174.523 33.0479 176.361 30.933 177.91 28.611C181.762 23.5358 174.265 18.4606 169.808 21.909C169.555 22.1418 169.346 22.4184 169.19 22.7255C167.233 25.7355 164.404 28.0732 161.082 29.4244C160.878 29.6254 160.677 29.6254 160.677 29.8296H160.474C158.064 30.6607 155.497 30.9284 152.969 30.6121C150.44 30.2959 148.018 29.404 145.886 28.0048L146.294 27.5966H146.494C146.27 27.3831 145.987 27.242 145.682 27.1914C144.445 26.3713 143.159 25.6257 141.833 24.9585C135.711 21.0051 128.336 19.4841 121.153 20.6936L121.174 20.706Z" fill="#1782FF"/>
</g>
<path d="M180.68 95L218.12 10.4H227.84L265.88 95H254.36L243.92 71L248.72 73.88H197.24L202.52 71L192.08 95H180.68ZM222.8 22.88L204.08 67.28L201.2 64.76H244.76L242.48 67.28L223.28 22.88H222.8ZM288.936 95V19.88H259.656V10.4H329.616V19.88H300.216V95H288.936ZM341.547 95V10.4H352.707V47.36H401.907V10.4H413.187V95H401.907V56.84H352.707V95H341.547Z" fill="#1782FF"/>
<path d="M409.32 95V10.4H420.48V85.4H462.6V95H409.32ZM475.179 95V10.4H529.899V19.52H485.979V47.48H527.139V56.6H485.979V85.88H529.899V95H475.179ZM535.68 95L573.12 10.4H582.84L620.88 95H609.36L598.92 71L603.72 73.88H552.24L557.52 71L547.08 95H535.68ZM577.8 22.88L559.08 67.28L556.2 64.76H599.76L597.48 67.28L578.28 22.88H577.8ZM632.914 95V10.4H667.954C676.994 10.4 683.914 12.56 688.714 16.88C693.514 21.2 695.914 27.16 695.914 34.76C695.914 42.36 693.514 48.36 688.714 52.76C683.914 57.08 676.994 59.24 667.954 59.24H644.074V95H632.914ZM644.074 50.12H666.874C672.794 50.12 677.274 48.8 680.314 46.16C683.354 43.44 684.874 39.64 684.874 34.76C684.874 29.88 683.354 26.12 680.314 23.48C677.274 20.84 672.794 19.52 666.874 19.52H644.074V50.12Z" fill="black"/>
<line x1="37.4116" y1="9.8335" x2="113.246" y2="9.8335" stroke="#1782FF" stroke-width="4"/>
<line x1="12.1333" y1="34.5762" x2="87.9677" y2="34.5762" stroke="#1782FF" stroke-width="4"/>
<path d="M12.1333 89.2881H87.9677" stroke="#1782FF" stroke-width="4"/>
<line y1="61.4697" x2="75.8344" y2="61.4697" stroke="#1782FF" stroke-width="4"/>
<defs>
<clipPath id="clip0_801_834">
<rect width="91.0012" height="96.8182" fill="white" transform="translate(87.9678)"/>
</clipPath>
</defs>
</svg>
