<svg width="818" height="97" viewBox="0 0 818 97" fill="none" xmlns="http://www.w3.org/2000/svg">
<g clip-path="url(#clip0_801_834)">
<path fill-rule="evenodd" clip-rule="evenodd" d="M156.427 18.8782C157.551 17.8852 158.456 16.6682 159.085 15.305C159.713 13.9417 160.05 12.4621 160.076 10.9608C160.081 9.51963 159.801 8.0917 159.253 6.75929C158.705 5.42688 157.899 4.21633 156.882 3.19744C155.865 2.17855 154.657 1.37146 153.327 0.822698C151.997 0.273939 150.572 -0.0056376 149.133 8.61393e-05C146.701 0.0658179 144.355 0.919823 142.448 2.43407C140.309 4.51905 139.073 7.36231 139.006 10.3515C139.024 12.3684 139.603 14.3404 140.676 16.0464C141.75 17.7524 143.277 19.1249 145.086 20.0102C146.895 20.8955 148.914 21.2585 150.917 21.0586C152.92 20.8586 154.828 20.1036 156.427 18.8782ZM121.174 20.706C121.174 20.9101 120.97 20.9101 120.77 21.1111V21.3152C116.425 22.1523 112.373 24.1118 109.016 26.9997C106.989 28.9117 105.156 31.0199 103.543 33.2934C99.4934 38.9779 109.016 44.4582 112.868 38.7768C117.93 31.6635 124.211 29.6378 131.104 31.8738C127.659 38.1676 124.415 44.2448 120.159 52.7839C115.698 61.5147 106.179 68.4177 96.8543 63.1384C96.2291 62.7209 95.5271 62.4326 94.7894 62.2903C94.0516 62.1481 93.293 62.1547 92.5578 62.3098C91.8226 62.465 91.1258 62.7655 90.5079 63.1938C89.8901 63.6221 89.3638 64.1696 88.9597 64.8042C88.5557 65.4388 88.282 66.1478 88.1548 66.8897C88.0276 67.6316 88.0494 68.3915 88.2189 69.1249C88.3883 69.8582 88.7021 70.5503 89.1419 71.1607C89.5816 71.771 90.1384 72.2874 90.7797 72.6794C96.4635 75.9238 103.115 77.0316 109.541 75.8038C115.967 74.576 121.745 71.0931 125.838 65.9806C126.042 65.9806 126.455 66.1816 126.647 66.1816C132.689 68.6991 138.351 72.0489 143.469 76.134C145.898 78.1598 150.152 88.505 152.584 93.7936C152.963 94.5375 153.503 95.1874 154.164 95.696C154.825 96.2047 155.591 96.5593 156.406 96.734C157.221 96.9088 158.065 96.8994 158.876 96.7063C159.687 96.5133 160.445 96.1416 161.094 95.6183C161.864 94.8699 162.362 93.885 162.51 92.8202C162.657 91.7554 162.444 90.6719 161.906 89.7421C159.069 83.8659 154.408 71.8753 150.559 69.0207C147.498 66.5023 144.32 64.1286 141.037 61.9074L141.441 61.5023C140.118 60.6433 138.765 59.8305 137.385 59.0652C140.833 52.5705 144.278 46.2767 147.923 39.983C152.102 41.3067 156.55 41.5349 160.843 40.6459C165.135 39.7568 169.128 37.7802 172.441 34.9047C174.523 33.0479 176.361 30.933 177.91 28.611C181.762 23.5358 174.265 18.4606 169.808 21.909C169.555 22.1418 169.346 22.4184 169.19 22.7255C167.233 25.7355 164.404 28.0732 161.082 29.4244C160.878 29.6254 160.677 29.6254 160.677 29.8296H160.474C158.064 30.6607 155.497 30.9284 152.969 30.6121C150.44 30.2959 148.018 29.404 145.886 28.0048L146.294 27.5966H146.494C146.27 27.3831 145.987 27.242 145.682 27.1914C144.445 26.3713 143.159 25.6257 141.833 24.9585C135.711 21.0051 128.336 19.4841 121.153 20.6936L121.174 20.706Z" fill="#1782FF"/>
</g>
<path d="M196.758 89.5762L230.838 44.2162V48.5362L198.198 4.97617H211.398L237.438 40.4962H233.958L259.638 4.97617H272.958L240.318 48.5362V44.2162L274.398 89.5762H261.078L233.478 51.8962H237.678L209.958 89.5762H196.758Z" fill="#1782FF"/>
<path d="M318.28 91.08C311.48 91.08 305.36 90.2 299.92 88.44C294.48 86.68 289.76 84.2 285.76 81L289.6 72.12C292.4 74.2 295.24 75.96 298.12 77.4C301 78.76 304.08 79.8 307.36 80.52C310.72 81.16 314.36 81.48 318.28 81.48C325.24 81.48 330.36 80.24 333.64 77.76C337 75.2 338.68 71.84 338.68 67.68C338.68 64.08 337.52 61.32 335.2 59.4C332.88 57.48 328.84 55.96 323.08 54.84L310.24 52.2C302.48 50.6 296.68 48 292.84 44.4C289.08 40.72 287.2 35.76 287.2 29.52C287.2 24.48 288.52 20.08 291.16 16.32C293.88 12.48 297.6 9.51999 302.32 7.44C307.12 5.36 312.72 4.31999 319.12 4.31999C325.04 4.31999 330.52 5.2 335.56 6.96C340.6 8.72 344.84 11.32 348.28 14.76L344.44 23.28C340.84 20 336.96 17.64 332.8 16.2C328.72 14.68 324.08 13.92 318.88 13.92C312.56 13.92 307.56 15.28 303.88 18C300.2 20.72 298.36 24.4 298.36 29.04C298.36 32.72 299.52 35.64 301.84 37.8C304.16 39.88 308 41.48 313.36 42.6L326.2 45.12C334.36 46.72 340.32 49.24 344.08 52.68C347.92 56.12 349.84 60.88 349.84 66.96C349.84 71.76 348.56 76 346 79.68C343.44 83.28 339.8 86.08 335.08 88.08C330.36 90.08 324.76 91.08 318.28 91.08ZM365.672 90V5.39999H400.712C409.752 5.39999 416.672 7.56 421.472 11.88C426.272 16.2 428.672 22.16 428.672 29.76C428.672 37.36 426.272 43.36 421.472 47.76C416.672 52.08 409.752 54.24 400.712 54.24H376.832V90H365.672ZM376.832 45.12H399.632C405.552 45.12 410.032 43.8 413.072 41.16C416.112 38.44 417.632 34.64 417.632 29.76C417.632 24.88 416.112 21.12 413.072 18.48C410.032 15.84 405.552 14.52 399.632 14.52H376.832V45.12ZM440.364 47.64C440.364 38.76 441.924 31.08 445.044 24.6C448.164 18.12 452.644 13.12 458.484 9.6C464.404 6.08 471.444 4.31999 479.604 4.31999C487.684 4.31999 494.644 6.08 500.484 9.6C506.404 13.12 510.964 18.12 514.164 24.6C517.364 31.08 518.964 38.72 518.964 47.52C518.964 56.4 517.364 64.12 514.164 70.68C510.964 77.16 506.404 82.2 500.484 85.8C494.644 89.32 487.684 91.08 479.604 91.08C471.444 91.08 464.444 89.32 458.604 85.8C452.764 82.2 448.244 77.16 445.044 70.68C441.924 64.12 440.364 56.44 440.364 47.64ZM452.124 47.64C452.124 58.2 454.444 66.44 459.084 72.36C463.724 78.28 470.564 81.24 479.604 81.24C488.324 81.24 495.084 78.32 499.884 72.48C504.764 66.56 507.204 58.28 507.204 47.64C507.204 37 504.804 28.76 500.004 22.92C495.204 17.08 488.404 14.16 479.604 14.16C470.564 14.16 463.724 17.08 459.084 22.92C454.444 28.76 452.124 37 452.124 47.64ZM536.648 90V5.39999H571.688C580.728 5.39999 587.688 7.52 592.568 11.76C597.528 16 600.008 21.92 600.008 29.52C600.008 34.56 598.888 38.84 596.648 42.36C594.408 45.88 591.248 48.56 587.168 50.4C583.168 52.24 578.488 53.16 573.128 53.16L575.168 51.48H578.048C581.328 51.48 584.248 52.32 586.808 54C589.368 55.6 591.488 58.24 593.168 61.92L605.168 90H592.808L581.168 62.16C579.808 58.72 577.808 56.48 575.168 55.44C572.608 54.4 569.368 53.88 565.448 53.88H547.808V90H536.648ZM547.808 45.24H570.008C576.168 45.24 580.848 43.92 584.048 41.28C587.328 38.64 588.968 34.8 588.968 29.76C588.968 24.8 587.328 21.04 584.048 18.48C580.848 15.84 576.168 14.52 570.008 14.52H547.808V45.24ZM638.022 90V14.88H608.742V5.39999H678.702V14.88H649.302V90H638.022ZM715.663 91.08C708.863 91.08 702.743 90.2 697.303 88.44C691.863 86.68 687.143 84.2 683.143 81L686.983 72.12C689.783 74.2 692.623 75.96 695.503 77.4C698.383 78.76 701.463 79.8 704.743 80.52C708.103 81.16 711.743 81.48 715.663 81.48C722.623 81.48 727.743 80.24 731.023 77.76C734.383 75.2 736.063 71.84 736.063 67.68C736.063 64.08 734.903 61.32 732.583 59.4C730.263 57.48 726.223 55.96 720.463 54.84L707.623 52.2C699.863 50.6 694.063 48 690.223 44.4C686.463 40.72 684.583 35.76 684.583 29.52C684.583 24.48 685.903 20.08 688.543 16.32C691.263 12.48 694.983 9.51999 699.703 7.44C704.503 5.36 710.103 4.31999 716.503 4.31999C722.423 4.31999 727.903 5.2 732.943 6.96C737.983 8.72 742.223 11.32 745.663 14.76L741.823 23.28C738.223 20 734.343 17.64 730.183 16.2C726.103 14.68 721.463 13.92 716.263 13.92C709.943 13.92 704.943 15.28 701.263 18C697.583 20.72 695.743 24.4 695.743 29.04C695.743 32.72 696.903 35.64 699.223 37.8C701.543 39.88 705.383 41.48 710.743 42.6L723.583 45.12C731.743 46.72 737.703 49.24 741.463 52.68C745.303 56.12 747.223 60.88 747.223 66.96C747.223 71.76 745.943 76 743.383 79.68C740.823 83.28 737.183 86.08 732.463 88.08C727.743 90.08 722.143 91.08 715.663 91.08Z" fill="black"/>
<line x1="37.4116" y1="9.8335" x2="113.246" y2="9.8335" stroke="#1782FF" stroke-width="4"/>
<line x1="12.1333" y1="34.5762" x2="87.9677" y2="34.5762" stroke="#1782FF" stroke-width="4"/>
<path d="M12.1333 89.2881H87.9677" stroke="#1782FF" stroke-width="4"/>
<line y1="61.4697" x2="75.8344" y2="61.4697" stroke="#1782FF" stroke-width="4"/>
<defs>
<clipPath id="clip0_801_834">
<rect width="91.0012" height="96.8182" fill="white" transform="translate(87.9678)"/>
</clipPath>
</defs>
</svg>
